# AST/ASF file generated using VICON BodyLanguage
# -----------------------------------------------
:version 1.10
:name VICON
:units
  mass 1.0
  length 0.45
  angle deg
:documentation
   .ast/.asf automatically generated from VICON data using
   VICON BodyBuilder and BodyLanguage model FoxedUp or BRILLIANT.MOD
:root
   order TX TY TZ RX RY RZ
   axis XYZ
   position 0 0 0  
   orientation 0 0 0 
:bonedata
  begin
     id 1 
     name lhipjoint
     direction 0.734343 -0.627749 0.258209 
     length 2.5437 
     axis 0 0 0  XYZ
  end
  begin
     id 2 
     name lfemur
     direction 0.34202 -0.939693 0  
     length 6.7391  
     axis 0 0 20  XYZ
    dof rx ry rz
    limits (-160.0 20.0)
           (-70.0 70.0)
           (-60.0 70.0)
  end
  begin
     id 3 
     name ltibia
     direction 0.34202 -0.939693 0   
     length 7.21536   
     axis 0 0 20   XYZ
    dof rx
    limits (-10.0 170.0)
  end
  begin
     id 4 
     name lfoot
     direction 0.0489572 -0.134509 0.989702   
     length 1.61313   
     axis -90 7.62852e-016 20   XYZ
    dof rx rz
    limits (-45.0 90.0)
           (-70.0 20.0)
  end
  begin
     id 5 
     name ltoes
     direction 1.53451e-011 -4.21692e-011 1   
     length 0.823104   
     axis -90 7.62852e-016 20   XYZ
    dof rx
    limits (-90.0 20.0)
  end
  begin
     id 6 
     name rhipjoint
     direction -0.746398 -0.615468 0.253157   
     length 2.59446  
     axis 0 0 0  XYZ 
  end
  begin
     id 7 
     name rfemur
     direction -0.34202 -0.939693 0   
     length 6.7075   
     axis 0 0 -20   XYZ
    dof rx ry rz
    limits (-160.0 20.0)
           (-70.0 70.0)
           (-70.0 60.0)
  end
  begin
     id 8 
     name rtibia
     direction -0.34202 -0.939693 0   
     length 7.27262   
     axis 0 0 -20   XYZ
    dof rx
    limits (-10.0 170.0)
 end
 begin
     id 9 
     name rfoot
     direction -0.0455203 -0.125066 0.991104   
     length 1.91095  
     axis -90 -7.62852e-016 -20   XYZ
    dof rx rz
    limits (-45.0 90.0)
           (-20.0 70.0)
  end
  begin
     id 10 
     name rtoes
     direction -1.53601e-011 -4.21913e-011 1   
     length 0.969037   
     axis -90 -7.62852e-016 -20   XYZ
    dof rx
    limits (-90.0 20.0)
  end
  begin
     id 11 
     name lowerback
     direction 0.0181546 0.999122 -0.0377542   
     length 1.99916   
     axis 0 0 0   XYZ
    dof rx ry rz
    limits (-20.0 45.0)
           (-30.0 30.0)
           (-30.0 30.0)
  end
  begin
     id 12 
     name upperback
     direction 0.0203486 0.99589 0.0882534   
     length 1.951   
     axis 0 0 0   XYZ
    dof rx ry rz
    limits (-20.0 45.0)
           (-30.0 30.0)
           (-30.0 30.0)
  end
  begin
     id 13 
     name thorax
     direction 0.0131685 0.994241 0.106355   
     length 1.97461   
     axis 0 0 0   XYZ
    dof rx ry rz
    limits (-20.0 45.0)
           (-30.0 30.0)
           (-30.0 30.0)
  end
  begin
     id 14 
     name lowerneck
     direction -0.0281395 0.999325 0.023617   
     length 1.7959   
     axis 0 0 0   XYZ
    dof rx ry rz
    limits (-20.0 45.0)
           (-30.0 30.0)
           (-30.0 30.0)
  end
  begin
     id 15 
     name upperneck
     direction 0.0288721 0.991984 -0.123019   
     length 1.79917   
     axis 0 0 0   XYZ
    dof rx ry rz
    limits (-20.0 45.0)
           (-30.0 30.0)
           (-30.0 30.0)
  end
  begin
     id 16
     name head
     direction 0.0133797 0.998944 -0.0439492  
     length 1.80902  
     axis 0 0 0   XYZ
    dof rx ry rz
    limits (-20.0 45.0)
           (-30.0 30.0)
           (-30.0 30.0)
  end
  begin
     id 17 
     name lclavicle
     direction 0.919195 0.377107 0.113449  
     length 3.17815  
     axis 0 0 0   XYZ
    dof ry rz
    limits (-20.0 10.0)
           (0.0 20.0)
  end
  begin
     id 18 
     name lhumerus
     direction 1 -4.48959e-011 2.13129e-027   
     length 4.84137   
     axis 180 -30 -90   XYZ
    dof rx ry rz
    limits (-60.0 90.0)
           (-90.0 90.0)
           (-90.0 90.0)
  end
  begin
     id 19
     name lradius
     direction 1 -4.48957e-011 -6.30627e-028   
     length 3.2452   
     axis 180 -30 -90   XYZ
    dof rx
    limits (-10.0 170.0)
  end
  begin
     id 20
     name lwrist
     direction 1 -4.4901e-011 9.13299e-027   
     length 1.6226   
     axis -6.84618e-015 90 90   XYZ
    dof ry
    limits (-180.0 0.0)
 end
  begin
     id 21 
     name lhand
     direction 1 -4.48816e-011 1.82293e-026   
     length 0.521221   
     axis -1.16502e-014 90 90   XYZ
    dof rx rz
    limits (-90.0 90.0)
           (-45.0 45.0)
  end
  begin
     id 22 
     name lfingers
     direction 1 -4.49108e-011 3.65687e-026   
     length 0.420221   
     axis -2.33008e-014 90 90   XYZ
    dof rx
    limits (0.0 90.0)
  end
  begin
     id 23
     name lthumb
     direction 0.707107 -6.34943e-011 0.707107   
     length 0.603356   
     axis -90 45 5.69224e-014   XYZ
    dof rx rz
    limits (-45.0 45.0)
           (-45.0 45.0)
  end
  begin
     id 24 
     name rclavicle
     direction -0.90847 0.38596 0.160368   
     length 3.12973  
     axis 0 0 0   XYZ 
    dof ry rz
    limits (-10.0 20.0)
           (-20.0 0.0)
  end
  begin
     id 25 
     name rhumerus
     direction -1 -4.48974e-011 4.47268e-028  
     length 4.72284   
     axis 180 30 90   XYZ
    dof rx ry rz
    limits (-90.0 60.0)
           (-90.0 90.0)
           (-90.0 90.0)
  end
  begin
     id 26 
     name rradius
     direction -1 -4.48969e-011 3.43203e-027   
     length 3.23459   
     axis 180 30 90   XYZ
    dof rx
    limits (-10.0 170.0)
  end
  begin
     id 27 
     name rwrist
     direction -1 -4.48969e-011 9.12911e-027   
     length 1.6173   
     axis -6.84618e-015 -90 -90   XYZ
    dof ry
    limits (-180.0 0.0)
  end
  begin
     id 28
     name rhand
     direction -1 -4.49194e-011 1.83006e-026   
     length 0.307416   
     axis -1.16502e-014 -90 -90   XYZ
    dof rx rz
    limits (-90.0 90.0)
           (-45.0 45.0)
  end
  begin
     id 29
     name rfingers
     direction -1 -4.48423e-011 3.63103e-026   
     length 0.247847   
     axis -2.33008e-014 -90 -90   XYZ
    dof rx
    limits (0.0 90.0)
  end
  begin
     id 30
     name rthumb
     direction -0.707107 -6.34802e-011 0.707107   
     length 0.35586   
     axis -90 -45 -5.69224e-014   XYZ
    dof rx rz
    limits (-45.0 45.0)
           (-45.0 45.0)
  end
:hierarchy
  begin
    root lhipjoint rhipjoint lowerback
    lhipjoint lfemur
    lfemur ltibia
    ltibia lfoot
    lfoot ltoes
    rhipjoint rfemur
    rfemur rtibia
    rtibia rfoot
    rfoot rtoes
    lowerback upperback
    upperback thorax
    thorax lowerneck lclavicle rclavicle
    lowerneck upperneck
    upperneck head
    lclavicle lhumerus
    lhumerus lradius
    lradius lwrist
    lwrist lhand lthumb
    lhand lfingers
    rclavicle rhumerus
    rhumerus rradius
    rradius rwrist
    rwrist rhand rthumb
    rhand rfingers
  end

#!OML:ASF H:\Terrain\Patient Classification 1\Animal1\Tuesday\Animal1.ASF
:FULLY-SPECIFIED
:DEGREES
189
root 10.0835 15.9015 -10.1543 5.71956 28.0261 5.10855
lowerback 1.16918 4.60094 12.3832
upperback 0.420011 6.27447 4.02138
thorax 0.647858 3.17121 -2.66567
lowerneck 4.14371 20.4057 2.67627
upperneck -23.8149 27.1692 -10.1049
head -6.21327 13.7991 -4.93585
rclavicle 4.03533e-014 -1.27222e-014
rhumerus -2.30006 23.2027 -62.7646
rradius 47.3536
rwrist -18.0014
rhand -18.8158 24.5625
rfingers 7.12502
rthumb 7.48296 -5.28518
lclavicle 4.03533e-014 -1.27222e-014
lhumerus 13.2682 -46.1486 71.6566
lradius 50.7837
lwrist -25.4419
lhand 16.8149 34.8503
lfingers 7.12502
lthumb 41.5571 59.587
rfemur -24.3404 -6.13334 16.95
rtibia 47.1163
rfoot -26.5549 -29.2624
rtoes 22.8118
lfemur -25.5138 -15.3408 -12.2502
ltibia 27.5673
lfoot -11.1301 1.03089
ltoes -20.6368
190
root 10.07 15.8984 -10.1564 5.4656 28.2438 4.86954
lowerback 1.23081 4.53165 12.6259
upperback 0.43351 6.19533 4.10066
thorax 0.632959 3.13259 -2.71968
lowerneck 4.28424 20.3963 2.87081
upperneck -23.9384 27.1478 -10.3002
head -6.21929 13.7922 -5.02731
rclavicle -1.45113e-014 -9.54166e-015
rhumerus -2.16632 23.247 -62.8294
rradius 47.3119
rwrist -17.9768
rhand -18.4068 24.1722
rfingers 7.12502
rthumb 7.8777 -5.66098
lclavicle -1.45113e-014 -9.54166e-015
lhumerus 13.4525 -46.2821 71.3853
lradius 50.8448
lwrist -25.027
lhand 17.1721 35.7496
lfingers 7.12502
lthumb 41.8921 60.3757
rfemur -24.1725 -6.07632 17.1807
rtibia 47.0458
rfoot -26.3259 -29.7165
rtoes 21.1231
lfemur -25.4347 -15.3752 -11.9882
ltibia 27.528
lfoot -11.1911 0.863826
ltoes -20.171
191
root 10.0584 15.8912 -10.1627 5.33775 28.4758 4.77457
lowerback 1.19237 4.51513 12.7475
upperback 0.474019 6.16457 4.13972
thorax 0.701334 3.12281 -2.73851
lowerneck 4.22368 20.4003 2.97572
upperneck -23.9928 27.1586 -10.3513
head -6.20428 13.7947 -5.04546
rclavicle -5.31252e-014 -3.18055e-014
rhumerus -2.04933 23.2316 -62.8121
rradius 47.2475
rwrist -18.0916
rhand -18.3538 24.3497
rfingers 7.12502
rthumb 7.92889 -5.48163
lclavicle -5.31252e-014 -3.18055e-014
lhumerus 13.6226 -46.0828 71.4977
lradius 50.4641
lwrist -25.2287
lhand 17.2709 35.5039
lfingers 7.12502
lthumb 41.9848 60.0991
rfemur -24.0703 -6.00004 17.2821
rtibia 46.9726
rfoot -26.3454 -29.9667
rtoes 20.8243
lfemur -25.464 -15.3854 -11.9041
ltibia 27.5576
lfoot -11.2781 1.12025
ltoes -23.741
192
root 10.0504 15.8851 -10.1685 5.47229 28.6422 4.89949
lowerback 1.01674 4.56351 12.7101
upperback 0.449904 6.20023 4.06639
thorax 0.784174 3.14371 -2.77825
lowerneck 4.47307 20.3888 3.19431
upperneck -24.3935 27.1502 -10.5797
head -6.30838 13.7907 -5.18767
rclavicle 3.05134e-014 -9.54166e-015
rhumerus -2.06786 23.1286 -62.8649
rradius 47.189
rwrist -18.1849
rhand -18.1912 24.8556
rfingers 7.12502
rthumb 8.08584 -4.96967
lclavicle 3.05134e-014 -9.54166e-015
lhumerus 13.6321 -45.7974 71.805
lradius 50.015
lwrist -25.5759
lhand 17.3308 34.6763
lfingers 7.12502
lthumb 42.0409 59.2526
rfemur -24.1756 -6.02354 17.193
rtibia 46.9564
rfoot -26.47 -29.9539
rtoes 21.8279
lfemur -25.676 -15.4223 -11.9779
ltibia 27.6368
lfoot -11.4297 1.43814
ltoes -27.0477
193
root 10.0419 15.8802 -10.1701 5.54868 28.7327 4.93033
lowerback 0.855097 4.57291 12.7276
upperback 0.455166 6.18469 4.05208
thorax 0.881979 3.14124 -2.78738
lowerneck 4.28147 20.4223 3.15465
upperneck -24.296 27.2013 -10.4922
head -6.26264 13.8114 -5.13011
rclavicle -1.20488e-013 -7.63333e-014
rhumerus -1.96888 23.0922 -62.9378
rradius 47.1658
rwrist -18.1978
rhand -17.5545 24.9013
rfingers 7.12502
rthumb 8.70023 -4.89945
lclavicle -1.20488e-013 -7.63333e-014
lhumerus 13.609 -45.4317 72.0155
lradius 49.7016
lwrist -25.7564
lhand 17.6639 34.2932
lfingers 7.12502
lthumb 42.3529 58.7639
rfemur -24.3016 -6.11317 17.2069
rtibia 47.0023
rfoot -26.4996 -29.9242
rtoes 22.0579
lfemur -25.83 -15.5018 -11.9079
ltibia 27.6601
lfoot -11.7327 1.37273
ltoes -26.9881
194
root 10.0304 15.8746 -10.1701 5.33225 28.8892 4.7364
lowerback 0.917309 4.54312 12.9057
upperback 0.527381 6.15049 4.16016
thorax 0.92484 3.12995 -2.77248
lowerneck 3.18675 20.4348 2.64972
upperneck -23.3766 27.2351 -9.7821
head -5.97138 13.8122 -4.69586
rclavicle -2.21893e-014 -1.59028e-014
rhumerus -1.79328 23.0023 -62.9093
rradius 47.1576
rwrist -18.074
rhand -17.2726 24.8636
rfingers 7.12502
rthumb 8.97228 -4.92564
lclavicle -2.21893e-014 -1.59028e-014
lhumerus 13.632 -45.4288 71.8842
lradius 49.8697
lwrist -25.6495
lhand 17.8033 34.2505
lfingers 7.12502
lthumb 42.4835 58.6764
rfemur -24.1995 -6.24953 17.4407
rtibia 47.0617
rfoot -26.3609 -30.0596
rtoes 21.4182
lfemur -25.7661 -15.5354 -11.6811
ltibia 27.6398
lfoot -12.0595 1.3347
ltoes -27.6885
195
root 10.0177 15.8734 -10.1681 5.22611 29.013 4.7746
lowerback 1.04343 4.57448 12.8734
upperback 0.5085 6.21579 4.16697
thorax 0.838997 3.15714 -2.75887
lowerneck 2.96797 20.3399 2.46089
upperneck -23.2969 27.1228 -9.54824
head -5.97912 13.7507 -4.58951
rclavicle 6.38099e-014 -1.90833e-014
rhumerus -1.85814 22.8301 -62.9619
rradius 47.1053
rwrist -17.9016
rhand -17.3758 24.8871
rfingers 7.12502
rthumb 8.87269 -4.90635
lclavicle 6.38099e-014 -1.90833e-014
lhumerus 13.5261 -45.748 71.8
lradius 50.0974
lwrist -25.5578
lhand 17.731 34.3081
lfingers 7.12502
lthumb 42.4158 58.7572
rfemur -24.0837 -6.29827 17.4467
rtibia 47.137
rfoot -26.3215 -30.1817
rtoes 21.9207
lfemur -25.6447 -15.4095 -11.7366
ltibia 27.6374
lfoot -12.3277 1.50906
ltoes -30.0721
196
root 10.0083 15.874 -10.1668 5.30215 29.0879 5.0616
lowerback 1.11427 4.60739 12.6324
upperback 0.441316 6.2758 4.07379
thorax 0.721746 3.17769 -2.7366
lowerneck 3.35847 20.2338 2.71331
upperneck -23.7319 26.9872 -9.76345
head -6.12023 13.68 -4.74869
rclavicle 9.4373e-014 4.77083e-014
rhumerus -1.95481 22.8105 -63.0979
rradius 47.0157
rwrist -18.0061
rhand -17.5768 24.702
rfingers 7.12502
rthumb 8.67874 -5.09959
lclavicle 9.4373e-014 4.77083e-014
lhumerus 13.4164 -45.829 71.909
lradius 49.9799
lwrist -25.7185
lhand 17.5455 34.265
lfingers 7.12502
lthumb 42.242 58.7734
rfemur -24.0626 -6.313 17.1992
rtibia 47.2453
rfoot -26.4606 -30.1999
rtoes 22.7874
lfemur -25.523 -15.2383 -12.0503
ltibia 27.5943
lfoot -12.575 1.51699
ltoes -31.1799
197
root 10.004 15.8654 -10.1692 5.2608 29.2865 5.196
lowerback 1.1639 4.58092 12.5997
upperback 0.4929 6.2434 4.05742
thorax 0.742162 3.16457 -2.73885
lowerneck 3.16723 20.1719 2.69616
upperneck -23.8012 26.8893 -9.83544
head -6.10879 13.6417 -4.74718
rclavicle -3.70858e-014 -8.26944e-014
rhumerus -1.84013 22.8901 -63.0168
rradius 47.0244
rwrist -18.33
rhand -17.753 24.663
rfingers 7.12502
rthumb 8.50868 -5.14561
lclavicle -3.70858e-014 -8.26944e-014
lhumerus 13.677 -46.0161 71.5859
lradius 50.1729
lwrist -25.4972
lhand 17.2726 34.6304
lfingers 7.12502
lthumb 41.9864 59.225
rfemur -23.9932 -6.5072 17.0857
rtibia 47.3825
rfoot -26.5443 -30.2397
rtoes 22.3135
lfemur -25.4117 -15.1777 -12.2392
ltibia 27.5075
lfoot -12.6379 1.65401
ltoes -32.2556
